<svg viewBox="0 0 1024 1024" width="1em" height="1em" fill="currentColor">
    <path d="M0 219.428571h73.142857v585.142858H0V219.428571z m950.857143 0h73.142857v585.142858h-73.142857V219.428571z m-146.285714-146.285714a73.142857 73.142857 0 0 1 73.142857 73.142857v731.428572a73.142857 73.142857 0 0 1-73.142857 73.142857H219.428571a73.142857 73.142857 0 0 1-73.142857-73.142857V146.285714a73.142857 73.142857 0 0 1 73.142857-73.142857h585.142858z m0 73.142857H219.428571v731.428572h585.142858V146.285714zM365.714286 694.857143a36.571429 36.571429 0 1 1 0 73.142857 36.571429 36.571429 0 0 1 0-73.142857z m146.285714 0a36.571429 36.571429 0 1 1 0 73.142857 36.571429 36.571429 0 0 1 0-73.142857z m146.285714 0a36.571429 36.571429 0 1 1 0 73.142857 36.571429 36.571429 0 0 1 0-73.142857z"></path>
  </svg>