<svg width="36" height="36" viewBox="0 0 36 36" fill="none" xmlns="http://www.w3.org/2000/svg">
<g id="button/secondary/circle/large/normal">
<g id="Global" clip-path="url(#clip0_811_647)">
<path id="Vector" d="M23.35 22.5141C23.3531 22.5094 23.3578 22.5047 23.3609 22.5C24.3844 21.2828 25 19.7141 25 18C25 16.2859 24.3844 14.7172 23.3625 13.5C23.3594 13.4953 23.3547 13.4922 23.3516 13.4875C23.3344 13.4672 23.3187 13.4484 23.3016 13.4297C23.2953 13.4219 23.2891 13.4156 23.2828 13.4078L23.2188 13.3344L23.2172 13.3328C23.1938 13.3063 23.1687 13.2797 23.1453 13.2531L23.1438 13.2516C23.0938 13.1984 23.0437 13.1453 22.9922 13.0938L22.9906 13.0922L22.9156 13.0172L22.9109 13.0125C22.8875 12.9891 22.8641 12.9672 22.8406 12.9453C22.8328 12.9375 22.825 12.9297 22.8156 12.9219C22.8 12.9062 22.7844 12.8922 22.7688 12.8781C22.7641 12.8734 22.7578 12.8687 22.7531 12.8625C21.5063 11.7062 19.8359 11 18 11C16.1641 11 14.4938 11.7062 13.2453 12.8625C13.2406 12.8672 13.2344 12.8719 13.2297 12.8781C13.2141 12.8922 13.1984 12.9078 13.1828 12.9234C13.175 12.9313 13.1672 12.9391 13.1578 12.9469C13.1344 12.9688 13.1109 12.9922 13.0875 13.0141L13.0828 13.0187L13.0078 13.0938L13.0062 13.0953C12.9547 13.1469 12.9047 13.2 12.8547 13.2531L12.8531 13.2547C12.8281 13.2812 12.8047 13.3078 12.7812 13.3344L12.7797 13.3359C12.7578 13.3594 12.7359 13.3844 12.7156 13.4094C12.7094 13.4172 12.7031 13.4234 12.6969 13.4313C12.6797 13.45 12.6641 13.4703 12.6469 13.4891C12.6437 13.4938 12.6391 13.4969 12.6359 13.5016C11.6156 14.7172 11 16.2859 11 18C11 19.7141 11.6156 21.2828 12.6375 22.5C12.6406 22.5047 12.6453 22.5094 12.6484 22.5141L12.6969 22.5719C12.7031 22.5797 12.7094 22.5859 12.7156 22.5938L12.7797 22.6672C12.7797 22.6687 12.7812 22.6688 12.7812 22.6703C12.8047 22.6969 12.8281 22.7234 12.8531 22.7484L12.8547 22.75C12.9047 22.8031 12.9547 22.8562 13.0047 22.9078L13.0062 22.9094C13.0312 22.9344 13.0547 22.9594 13.0797 22.9828L13.0844 22.9875C13.1359 23.0391 13.1891 23.0891 13.2422 23.1375C14.4938 24.2937 16.1641 25 18 25C19.8359 25 21.5062 24.2937 22.7547 23.1375C22.8079 23.0887 22.86 23.0387 22.9109 22.9875L22.9156 22.9828C22.9406 22.9578 22.9656 22.9344 22.9891 22.9094L22.9906 22.9078C23.0422 22.8562 23.0922 22.8031 23.1406 22.75L23.1422 22.7484C23.1656 22.7219 23.1906 22.6969 23.2141 22.6703C23.2141 22.6688 23.2156 22.6687 23.2156 22.6672C23.2375 22.6438 23.2594 22.6187 23.2797 22.5938C23.2859 22.5859 23.2922 22.5797 23.2984 22.5719C23.3161 22.553 23.3333 22.5338 23.35 22.5141ZM23.4141 20.2859C23.1984 20.7953 22.9141 21.2672 22.5672 21.6953C22.1765 21.3577 21.7494 21.0647 21.2937 20.8219C21.475 20.0891 21.5875 19.2844 21.6172 18.4375H23.8594C23.8125 19.0766 23.6625 19.6969 23.4141 20.2859ZM23.8594 17.5625H21.6172C21.5875 16.7156 21.475 15.9109 21.2937 15.1781C21.7516 14.9344 22.1781 14.6406 22.5672 14.3047C23.3212 15.2328 23.7722 16.3699 23.8594 17.5625ZM20.2859 12.5859C20.9062 12.8484 21.4703 13.2109 21.9672 13.6672C21.6785 13.913 21.3679 14.1316 21.0391 14.3203C20.7937 13.6172 20.4797 13.0063 20.1141 12.5172C20.1719 12.5391 20.2297 12.5625 20.2859 12.5859ZM18.8703 23.5328C18.7266 23.6453 18.5828 23.7312 18.4375 23.7891V20.8906C19.0575 20.9339 19.6672 21.0719 20.2453 21.3C20.1156 21.6844 19.9656 22.0391 19.7922 22.3594C19.5203 22.8656 19.2016 23.2703 18.8703 23.5328ZM19.7922 13.6406C19.9641 13.9625 20.1156 14.3172 20.2453 14.7C19.6672 14.9281 19.0575 15.0661 18.4375 15.1094V12.2125C18.5813 12.2703 18.7266 12.3547 18.8703 12.4688C19.2016 12.7297 19.5203 13.1344 19.7922 13.6406ZM18.4375 20.0141V18.4375H20.7422C20.7172 19.1281 20.6313 19.7984 20.4875 20.4344L20.4828 20.4531C19.8271 20.2045 19.1375 20.0564 18.4375 20.0141ZM18.4375 17.5625V15.9859C19.1531 15.9422 19.8406 15.7906 20.4828 15.5469L20.4875 15.5656C20.6313 16.2016 20.7172 16.8703 20.7422 17.5625H18.4375ZM17.5625 18.4375V20.0141C16.8469 20.0578 16.1594 20.2094 15.5172 20.4531L15.5125 20.4344C15.3687 19.7984 15.2828 19.1297 15.2578 18.4375H17.5625ZM15.2578 17.5625C15.2828 16.8719 15.3687 16.2016 15.5125 15.5656L15.5172 15.5469C16.1594 15.7906 16.8453 15.9422 17.5625 15.9859V17.5625H15.2578ZM17.5625 20.8906V23.7875C17.4187 23.7297 17.2734 23.6453 17.1297 23.5312C16.7984 23.2703 16.4781 22.8641 16.2063 22.3578C16.0344 22.0359 15.8828 21.6812 15.7531 21.2984C16.3344 21.0703 16.9391 20.9344 17.5625 20.8906ZM17.5625 15.1094C16.9425 15.0661 16.3328 14.9281 15.7547 14.7C15.8844 14.3156 16.0344 13.9609 16.2078 13.6406C16.4797 13.1344 16.7984 12.7281 17.1312 12.4672C17.275 12.3547 17.4188 12.2687 17.5641 12.2109V15.1094H17.5625ZM15.7141 12.5859C15.7719 12.5625 15.8281 12.5391 15.8859 12.5172C15.5203 13.0063 15.2063 13.6172 14.9609 14.3203C14.6328 14.1328 14.3219 13.9141 14.0328 13.6672C14.5297 13.2109 15.0938 12.8484 15.7141 12.5859ZM12.5859 15.7141C12.8016 15.2047 13.0859 14.7328 13.4328 14.3047C13.8219 14.6406 14.2484 14.9344 14.7063 15.1781C14.525 15.9109 14.4125 16.7156 14.3828 17.5625H12.1406C12.1875 16.9234 12.3375 16.3031 12.5859 15.7141ZM12.1406 18.4375H14.3828C14.4125 19.2844 14.525 20.0891 14.7063 20.8219C14.2506 21.0647 13.8235 21.3577 13.4328 21.6953C12.6788 20.7672 12.2278 19.6301 12.1406 18.4375ZM15.7141 23.4141C15.0938 23.1516 14.5297 22.7891 14.0328 22.3328C14.3219 22.0859 14.6328 21.8687 14.9609 21.6797C15.2063 22.3828 15.5203 22.9938 15.8859 23.4828C15.8281 23.4609 15.7703 23.4375 15.7141 23.4141ZM20.2859 23.4141C20.2281 23.4375 20.1719 23.4609 20.1141 23.4828C20.4797 22.9938 20.7937 22.3828 21.0391 21.6797C21.3672 21.8672 21.6781 22.0859 21.9672 22.3328C21.4731 22.7872 20.9043 23.1529 20.2859 23.4141Z" fill="#555555"/>
</g>
</g>
<defs>
<clipPath id="clip0_811_647">
<rect width="14" height="14" fill="white" transform="translate(11 11)"/>
</clipPath>
</defs>
</svg>
